# xmcd
#
# Track frame offsets:
#	150
#	10940
#	28131
#	35110
#
# Disc length: 787 seconds
#
# Revision: 0
# Processed by: cddbd v1.5.1PL0 Copyright (c) Steve Scherf et al.
# Submitted via: EasyCDDAExtractor 4.6.9.1
#
DISCID=2d031104
DTITLE=The Punkin Holler Boys - The Best In The Patch
DYEAR=2002
DGENRE=Bluegrass
TTITLE0=Beer Drinkin' Woman
TTITLE1=Better Beer
TTITLE2=Rolling Rock Song
TTITLE3=Beer(opus)
EXTD=
EXTT0=
EXTT1=
EXTT2=
EXTT3=
PLAYORDER=
